# xmcd CD database file
#
# Track frame offsets:
#	150
#	16000
#	36242
#	55107
#	79277
#	92730
#	103367
#	123240
#	140115
#	146120
#	171167
#	184212
#	203462
#	225770
#
# Disc length: 3129 seconds
#
# Revision: 2
# Processed by: cddbd v1.5.2PL0 Copyright (c) Steve Scherf et al.
# Submitted via: CDex 1.51
#
DISCID=bb0c370e
DTITLE=Rory Gallagher - Wheels Within Wheels
DYEAR=2003
DGENRE=Blues
TTITLE0=Wheels Within Wheels
TTITLE1=Fight To Paradise
TTITLE2=As The Crow Flies
TTITLE3=Lonesome Highway
TTITLE4=Bratacha Dubha
TTITLE5=She Moved Thro' The Fair - Ann Cran Ull
TTITLE6=Barley and Grape Rag
TTITLE7=The Cuckoo
TTITLE8=Amazing Grace
TTITLE9=Walkin' Blues
TTITLE10=Blue Moon Of Kentucky
TTITLE11=Deep Elm Blues
TTITLE12=Goin' To My Hometown
TTITLE13=Lonesome Highway Refraining
EXTD=YEAR: 2003
EXTT0=
EXTT1=
EXTT2=
EXTT3=
EXTT4=
EXTT5=
EXTT6=
EXTT7=
EXTT8=
EXTT9=
EXTT10=
EXTT11=
EXTT12=
EXTT13=
PLAYORDER=
